<svg width="18" height="19" viewBox="0 0 18 19" fill="none" xmlns="http://www.w3.org/2000/svg">
<path d="M16.8666 9.2081L9.20825 16.8664C8.27005 17.8046 6.99757 18.3317 5.67075 18.3317C4.34393 18.3317 3.07145 17.8046 2.13325 16.8664C1.19505 15.9282 0.667969 14.6558 0.667969 13.3289C0.667969 12.0021 1.19505 10.7296 2.13325 9.79144L9.79158 2.1331C10.4171 1.50763 11.2654 1.15625 12.1499 1.15625C13.0345 1.15625 13.8828 1.50763 14.5082 2.1331C15.1337 2.75857 15.4851 3.60689 15.4851 4.49144C15.4851 5.37598 15.1337 6.2243 14.5082 6.84977L6.84158 14.5081C6.52885 14.8208 6.10469 14.9965 5.66242 14.9965C5.22014 14.9965 4.79598 14.8208 4.48325 14.5081C4.17051 14.1954 3.99482 13.7712 3.99482 13.3289C3.99482 12.8867 4.17051 12.4625 4.48325 12.1498L11.5582 5.0831" stroke="white" stroke-width="0.833333"/>
</svg>
