<svg width="50" height="50" viewBox="0 0 50 50" fill="none" xmlns="http://www.w3.org/2000/svg">
<rect width="50" height="50" rx="25" fill="white"/>
<path d="M42.1596 21.5726H40.75V21.5H25V28.5H34.8901C33.4473 32.5749 29.5701 35.5 25 35.5C19.2014 35.5 14.5 30.7986 14.5 25C14.5 19.2014 19.2014 14.5 25 14.5C27.6766 14.5 30.1118 15.5098 31.9659 17.1591L36.9158 12.2093C33.7903 9.29638 29.6095 7.5 25 7.5C15.3356 7.5 7.5 15.3356 7.5 25C7.5 34.6644 15.3356 42.5 25 42.5C34.6644 42.5 42.5 34.6644 42.5 25C42.5 23.8266 42.3793 22.6813 42.1596 21.5726Z" fill="#FFC107"/>
<path d="M9.51758 16.8546L15.2672 21.0713C16.823 17.2195 20.5907 14.5 24.9998 14.5C27.6765 14.5 30.1116 15.5098 31.9657 17.1591L36.9156 12.2093C33.7901 9.29638 29.6093 7.5 24.9998 7.5C18.2781 7.5 12.4488 11.2949 9.51758 16.8546Z" fill="#FF3D00"/>
<path d="M24.9993 42.5C29.5195 42.5 33.6268 40.7701 36.7322 37.957L31.3159 33.3737C29.5589 34.7046 27.3749 35.5 24.9993 35.5C20.4475 35.5 16.5827 32.5976 15.1267 28.5472L9.41992 32.9441C12.3162 38.6115 18.1979 42.5 24.9993 42.5Z" fill="#4CAF50"/>
<path d="M42.1596 21.5726H40.75V21.5H25V28.5H34.8901C34.1971 30.4574 32.938 32.1453 31.314 33.3746C31.3149 33.3737 31.3158 33.3738 31.3166 33.3729L36.7329 37.9561C36.3496 38.3044 42.5 33.75 42.5 25C42.5 23.8266 42.3793 22.6813 42.1596 21.5726Z" fill="#1976D2"/>
</svg>
