<svg width="50" height="50" viewBox="0 0 50 50" fill="none" xmlns="http://www.w3.org/2000/svg">
<g clip-path="url(#clip0_365_171)">
<path d="M25.0008 49.9996C38.8078 49.9996 50.0005 38.8068 50.0005 24.9998C50.0005 11.1928 38.8078 0 25.0008 0C11.1938 0 0.000976562 11.1928 0.000976562 24.9998C0.000976562 38.8068 11.1938 49.9996 25.0008 49.9996Z" fill="#55ACEE"/>
<path d="M40.3127 17.9666C39.2414 18.4417 38.089 18.763 36.8804 18.9065C38.1144 18.1672 39.0613 16.9973 39.5083 15.6011C38.3537 16.2861 37.0742 16.783 35.7137 17.0508C34.6236 15.8899 33.0705 15.1644 31.3508 15.1644C28.0513 15.1644 25.3752 17.8405 25.3752 21.14C25.3752 21.6084 25.4282 22.0643 25.5307 22.5019C20.5644 22.2528 16.161 19.874 13.2135 16.2576C12.6992 17.1399 12.4042 18.1672 12.4042 19.2621C12.4042 21.3348 13.46 23.1646 15.0625 24.2359C14.0834 24.2052 13.1614 23.9365 12.3561 23.4877C12.3557 23.5131 12.3557 23.5385 12.3557 23.5635C12.3557 26.4588 14.4163 28.8738 17.1495 29.4224C16.6485 29.5596 16.1196 29.6323 15.5754 29.6323C15.1895 29.6323 14.8156 29.5953 14.4511 29.5257C15.2113 31.8992 17.4177 33.627 20.0332 33.6756C17.9877 35.2786 15.4114 36.2336 12.611 36.2336C12.1297 36.2336 11.6529 36.2055 11.1863 36.1498C13.8294 37.8459 16.9712 38.8348 20.3456 38.8348C31.337 38.8348 37.3478 29.7294 37.3478 21.8321C37.3478 21.5732 37.3421 21.3152 37.3305 21.0594C38.4989 20.2171 39.5119 19.165 40.3127 17.9666Z" fill="#F1F2F2"/>
</g>
<defs>
<clipPath id="clip0_365_171">
<rect width="50" height="50" fill="white"/>
</clipPath>
</defs>
</svg>
