<svg width="50" height="50" viewBox="0 0 50 50" fill="none" xmlns="http://www.w3.org/2000/svg">
<path d="M0 25C0 11.1929 11.1929 0 25 0V0C38.8071 0 50 11.1929 50 25V25C50 38.8071 38.8071 50 25 50V50C11.1929 50 0 38.8071 0 25V25Z" fill="#5181B8"/>
<path fill-rule="evenodd" clip-rule="evenodd" d="M40.1484 17.599C40.3711 16.8564 40.1484 16.3366 39.1088 16.3366H35.6434C34.7523 16.3366 34.3563 16.8069 34.1335 17.3267C34.1335 17.3267 32.3761 21.6337 29.8761 24.406C29.0593 25.2228 28.7127 25.4703 28.2672 25.4703C28.0444 25.4703 27.7226 25.2228 27.7226 24.4802V17.599C27.7226 16.7079 27.4751 16.3366 26.7325 16.3366H21.287C20.7424 16.3366 20.3959 16.7574 20.3959 17.1287C20.3959 17.9703 21.6335 18.1683 21.782 20.4951V25.5941C21.782 26.7079 21.584 26.906 21.1385 26.906C19.9751 26.906 17.1038 22.599 15.4206 17.6485C15.0741 16.7327 14.7523 16.3366 13.8612 16.3366H10.3959C9.40578 16.3366 9.20776 16.8069 9.20776 17.3267C9.20776 18.2426 10.3711 22.797 14.6781 28.8119C17.5493 32.9208 21.584 35.1485 25.2474 35.1485C27.4503 35.1485 27.7226 34.6535 27.7226 33.8119V30.6931C27.7226 29.703 27.9206 29.505 28.6385 29.505C29.1583 29.505 30.0246 29.7525 32.0791 31.7327C34.4305 34.0842 34.8266 35.1485 36.1385 35.1485H39.6038C40.5939 35.1485 41.089 34.6535 40.7919 33.6882C40.4701 32.7228 39.3563 31.3119 37.8711 29.6287C37.0543 28.6634 35.8414 27.6485 35.4949 27.1287C34.9751 26.4604 35.1236 26.1634 35.4949 25.5941C35.4949 25.5693 39.7276 19.6287 40.1484 17.599Z" fill="white"/>
</svg>
