<svg width="50" height="50" viewBox="0 0 50 50" fill="none" xmlns="http://www.w3.org/2000/svg">
<path d="M0 25C0 11.1929 11.1929 0 25 0V0C38.8071 0 50 11.1929 50 25V25C50 38.8071 38.8071 50 25 50V50C11.1929 50 0 38.8071 0 25V25Z" fill="#2DC100"/>
<path d="M31.2326 20.0736C28.2621 20.2288 25.679 21.1293 23.5819 23.1637C21.463 25.2191 20.4958 27.7378 20.7602 30.86C19.5991 30.7162 18.5416 30.558 17.4781 30.4684C17.1108 30.4375 16.6749 30.4814 16.3638 30.657C15.331 31.2397 14.341 31.8977 13.1675 32.6312C13.3828 31.6573 13.5222 30.8046 13.7689 29.9843C13.9504 29.3815 13.8663 29.0459 13.311 28.6533C9.74508 26.1358 8.24199 22.3681 9.36686 18.4891C10.4076 14.9007 12.9633 12.7244 16.4359 11.59C21.1757 10.0418 26.5024 11.621 29.3846 15.3842C30.4256 16.7435 31.0639 18.2692 31.2326 20.0736ZM17.5613 18.8649C17.5886 18.1554 16.9739 17.5163 16.2437 17.4949C15.496 17.473 14.8812 18.0443 14.8593 18.781C14.8372 19.5276 15.4083 20.126 16.1613 20.1451C16.9079 20.164 17.5337 19.5919 17.5613 18.8649ZM24.6941 17.4944C23.9612 17.5079 23.3419 18.1321 23.3549 18.8444C23.3683 19.5827 23.9758 20.1603 24.7294 20.1512C25.485 20.1422 26.0581 19.5584 26.051 18.8046C26.0447 18.0645 25.4399 17.4808 24.6941 17.4944Z" fill="white"/>
<path d="M37.9062 38.5924C36.9656 38.1736 36.1028 37.5452 35.1841 37.4493C34.269 37.3537 33.3071 37.8816 32.3497 37.9795C29.4334 38.2779 26.8208 37.4651 24.6665 35.4729C20.5693 31.6832 21.1548 25.8725 25.895 22.767C30.108 20.0069 36.2867 20.927 39.257 24.7567C41.8492 28.0986 41.5445 32.5348 38.3801 35.3422C37.4644 36.1548 37.1349 36.8234 37.7224 37.8945C37.8308 38.0923 37.8432 38.3427 37.9062 38.5924ZM27.1993 28.2259C27.7981 28.2266 28.2911 27.7579 28.3138 27.1665C28.3378 26.5403 27.8341 26.0151 27.2071 26.0125C26.5864 26.0097 26.0663 26.5423 26.0879 27.1591C26.1083 27.7485 26.6048 28.2252 27.1993 28.2259ZM34.1015 26.015C33.5204 26.0109 33.0268 26.4866 33.0031 27.0736C32.9779 27.7014 33.4658 28.2169 34.0871 28.2185C34.688 28.2204 35.1628 27.766 35.1846 27.1681C35.2079 26.5388 34.7198 26.0193 34.1015 26.015Z" fill="white"/>
</svg>
