<svg width="84" height="83" viewBox="0 0 84 83" fill="none" xmlns="http://www.w3.org/2000/svg">
<path fill-rule="evenodd" clip-rule="evenodd" d="M35.5933 26.14C27.5461 26.0804 1.86703 27.3668 7.75868 42.2103C13.6503 57.0536 18.5864 62.2899 27.3076 62.8161C36.0287 63.3423 50.1853 71.9576 59.8295 64.1421C69.4736 56.3267 75.3907 34.7661 68.6142 27.005C61.8377 19.2439 60.7762 17.0025 57.0497 17.3982C51.2863 18.0103 43.6403 26.1994 35.5933 26.14Z" fill="#E74F6E"/>
<path fill-rule="evenodd" clip-rule="evenodd" d="M41.5589 26.5785C34.1536 23.4141 9.94888 14.6737 9.62734 30.6061C9.30564 46.5385 11.8303 53.2632 19.6768 57.1176C27.5234 60.9719 37.2483 74.3687 49.1842 70.9056C61.12 67.4424 74.9494 49.8939 71.7058 40.1352C68.4621 30.3765 68.3523 27.9042 64.7585 26.8281C59.2008 25.1639 48.9643 29.7429 41.5589 26.5785Z" fill="#5882CF"/>
<path fill-rule="evenodd" clip-rule="evenodd" d="M71.6171 38.1693C71.1298 47.5077 66.3182 58.8861 59.8442 64.1317C50.3386 71.834 36.4942 63.7315 27.6514 62.8505C24.8526 60.6071 22.2421 58.5009 19.8112 57.3029C12.0588 53.4821 9.44555 46.8901 9.62312 31.5225C15.9364 26.3418 29.8286 25.7444 35.387 25.7845C36.5957 25.7932 37.7954 25.6176 38.9813 25.3103C40.0936 25.7366 41.0664 26.136 41.852 26.4729C49.3278 29.6795 59.6505 25.0655 65.2602 26.7539C68.6237 27.7662 68.9663 29.9877 71.6171 38.1693Z" fill="#482560"/>
<g filter="url(#filter0_dd_5955_14569)">
<path d="M9.3592 36.4179H11.9512V45.5059H17.5672V47.6179H9.3592V36.4179ZM22.873 47.7459C21.9663 47.7459 21.1503 47.5593 20.425 47.1859C19.7103 46.8019 19.1503 46.2739 18.745 45.6019C18.3396 44.9299 18.137 44.1673 18.137 43.3139C18.137 42.4606 18.3396 41.6979 18.745 41.0259C19.1503 40.3539 19.7103 39.8313 20.425 39.4579C21.1503 39.0739 21.9663 38.8819 22.873 38.8819C23.7796 38.8819 24.5903 39.0739 25.305 39.4579C26.0196 39.8313 26.5796 40.3539 26.985 41.0259C27.3903 41.6979 27.593 42.4606 27.593 43.3139C27.593 44.1673 27.3903 44.9299 26.985 45.6019C26.5796 46.2739 26.0196 46.8019 25.305 47.1859C24.5903 47.5593 23.7796 47.7459 22.873 47.7459ZM22.873 45.6979C23.513 45.6979 24.0356 45.4846 24.441 45.0579C24.857 44.6206 25.065 44.0393 25.065 43.3139C25.065 42.5886 24.857 42.0126 24.441 41.5859C24.0356 41.1486 23.513 40.9299 22.873 40.9299C22.233 40.9299 21.705 41.1486 21.289 41.5859C20.873 42.0126 20.665 42.5886 20.665 43.3139C20.665 44.0393 20.873 44.6206 21.289 45.0579C21.705 45.4846 22.233 45.6979 22.873 45.6979ZM32.5927 38.8819C33.926 38.8819 34.95 39.2019 35.6647 39.8419C36.3794 40.4713 36.7367 41.4259 36.7367 42.7059V47.6179H34.4007V46.5459C33.9314 47.3459 33.0567 47.7459 31.7767 47.7459C31.1154 47.7459 30.5394 47.6339 30.0487 47.4099C29.5687 47.1859 29.2007 46.8766 28.9447 46.4819C28.6887 46.0873 28.5607 45.6393 28.5607 45.1379C28.5607 44.3379 28.8594 43.7086 29.4567 43.2499C30.0647 42.7913 30.998 42.5619 32.2567 42.5619H34.2407C34.2407 42.0179 34.0754 41.6019 33.7447 41.3139C33.414 41.0153 32.918 40.8659 32.2567 40.8659C31.798 40.8659 31.3447 40.9406 30.8967 41.0899C30.4594 41.2286 30.086 41.4206 29.7767 41.6659L28.8807 39.9219C29.35 39.5913 29.91 39.3353 30.5607 39.1539C31.222 38.9726 31.8994 38.8819 32.5927 38.8819ZM32.4007 46.0659C32.8274 46.0659 33.206 45.9699 33.5367 45.7779C33.8674 45.5753 34.102 45.2819 34.2407 44.8979V44.0179H32.5287C31.5047 44.0179 30.9927 44.3539 30.9927 45.0259C30.9927 45.3459 31.1154 45.6019 31.3607 45.7939C31.6167 45.9753 31.9634 46.0659 32.4007 46.0659ZM47.8575 35.7459V47.6179H45.4735V46.6259C44.8548 47.3726 43.9588 47.7459 42.7855 47.7459C41.9748 47.7459 41.2388 47.5646 40.5775 47.2019C39.9268 46.8393 39.4148 46.3219 39.0415 45.6499C38.6681 44.9779 38.4815 44.1993 38.4815 43.3139C38.4815 42.4286 38.6681 41.6499 39.0415 40.9779C39.4148 40.3059 39.9268 39.7886 40.5775 39.4259C41.2388 39.0633 41.9748 38.8819 42.7855 38.8819C43.8841 38.8819 44.7428 39.2286 45.3615 39.9219V35.7459H47.8575ZM43.2175 45.6979C43.8468 45.6979 44.3695 45.4846 44.7855 45.0579C45.2015 44.6206 45.4095 44.0393 45.4095 43.3139C45.4095 42.5886 45.2015 42.0126 44.7855 41.5859C44.3695 41.1486 43.8468 40.9299 43.2175 40.9299C42.5775 40.9299 42.0495 41.1486 41.6335 41.5859C41.2175 42.0126 41.0095 42.5886 41.0095 43.3139C41.0095 44.0393 41.2175 44.6206 41.6335 45.0579C42.0495 45.4846 42.5775 45.6979 43.2175 45.6979ZM50.1676 39.0099H52.6636V47.6179H50.1676V39.0099ZM51.4156 37.8099C50.9569 37.8099 50.5836 37.6766 50.2956 37.4099C50.0076 37.1433 49.8636 36.8126 49.8636 36.4179C49.8636 36.0233 50.0076 35.6926 50.2956 35.4259C50.5836 35.1593 50.9569 35.0259 51.4156 35.0259C51.8742 35.0259 52.2476 35.1539 52.5356 35.4099C52.8236 35.6659 52.9676 35.9859 52.9676 36.3699C52.9676 36.7859 52.8236 37.1326 52.5356 37.4099C52.2476 37.6766 51.8742 37.8099 51.4156 37.8099ZM60.2121 38.8819C61.2787 38.8819 62.1374 39.2019 62.7881 39.8419C63.4494 40.4819 63.7801 41.4313 63.7801 42.6899V47.6179H61.2841V43.0739C61.2841 42.3913 61.1347 41.8846 60.8361 41.5539C60.5374 41.2126 60.1054 41.0419 59.5401 41.0419C58.9107 41.0419 58.4094 41.2393 58.0361 41.6339C57.6627 42.0179 57.4761 42.5939 57.4761 43.3619V47.6179H54.9801V39.0099H57.3641V40.0179C57.6947 39.6553 58.1054 39.3779 58.5961 39.1859C59.0867 38.9833 59.6254 38.8819 60.2121 38.8819ZM75.0163 39.0099V46.1779C75.0163 47.7566 74.6057 48.9299 73.7843 49.6979C72.963 50.4659 71.763 50.8499 70.1843 50.8499C69.3523 50.8499 68.563 50.7486 67.8163 50.5459C67.0697 50.3433 66.451 50.0499 65.9603 49.6659L66.9523 47.8739C67.315 48.1726 67.7737 48.4073 68.3283 48.5779C68.883 48.7593 69.4377 48.8499 69.9923 48.8499C70.8563 48.8499 71.491 48.6526 71.8963 48.2579C72.3123 47.8739 72.5203 47.2873 72.5203 46.4979V46.1299C71.8697 46.8446 70.963 47.2019 69.8003 47.2019C69.011 47.2019 68.2857 47.0313 67.6243 46.6899C66.9737 46.3379 66.4563 45.8473 66.0723 45.2179C65.6883 44.5886 65.4963 43.8633 65.4963 43.0419C65.4963 42.2206 65.6883 41.4953 66.0723 40.8659C66.4563 40.2366 66.9737 39.7513 67.6243 39.4099C68.2857 39.0579 69.011 38.8819 69.8003 38.8819C71.0483 38.8819 71.9977 39.2926 72.6483 40.1139V39.0099H75.0163ZM70.2963 45.1539C70.9577 45.1539 71.4963 44.9619 71.9123 44.5779C72.339 44.1833 72.5523 43.6713 72.5523 43.0419C72.5523 42.4126 72.339 41.9059 71.9123 41.5219C71.4963 41.1273 70.9577 40.9299 70.2963 40.9299C69.635 40.9299 69.091 41.1273 68.6643 41.5219C68.2377 41.9059 68.0243 42.4126 68.0243 43.0419C68.0243 43.6713 68.2377 44.1833 68.6643 44.5779C69.091 44.9619 69.635 45.1539 70.2963 45.1539Z" fill="white"/>
</g>
<defs>
<filter id="filter0_dd_5955_14569" x="1.35921" y="27.0259" width="81.6571" height="31.8241" filterUnits="userSpaceOnUse" color-interpolation-filters="sRGB">
<feFlood flood-opacity="0" result="BackgroundImageFix"/>
<feColorMatrix in="SourceAlpha" type="matrix" values="0 0 0 0 0 0 0 0 0 0 0 0 0 0 0 0 0 0 127 0" result="hardAlpha"/>
<feOffset/>
<feGaussianBlur stdDeviation="4"/>
<feColorMatrix type="matrix" values="0 0 0 0 0 0 0 0 0 0 0 0 0 0 0 0 0 0 0.75 0"/>
<feBlend mode="normal" in2="BackgroundImageFix" result="effect1_dropShadow_5955_14569"/>
<feColorMatrix in="SourceAlpha" type="matrix" values="0 0 0 0 0 0 0 0 0 0 0 0 0 0 0 0 0 0 127 0" result="hardAlpha"/>
<feOffset dy="1"/>
<feGaussianBlur stdDeviation="1"/>
<feColorMatrix type="matrix" values="0 0 0 0 0 0 0 0 0 0 0 0 0 0 0 0 0 0 0.5 0"/>
<feBlend mode="normal" in2="effect1_dropShadow_5955_14569" result="effect2_dropShadow_5955_14569"/>
<feBlend mode="normal" in="SourceGraphic" in2="effect2_dropShadow_5955_14569" result="shape"/>
</filter>
</defs>
</svg>
