<svg width="110" height="81" viewBox="0 0 110 81" fill="none" xmlns="http://www.w3.org/2000/svg">
<path d="M3.44886 73.9411C5.51158 73.9411 6.56586 75.2195 6.56586 77.2514C6.56586 79.2375 5.67201 80.7671 3.47178 80.7671H1.13403V73.9639H3.44886V73.9411ZM1.54658 80.4018H3.31135C5.39698 80.4018 6.15331 79.1462 6.15331 77.2742C6.15331 75.5163 5.32823 74.3064 3.42594 74.3064H1.54658V80.4018Z" fill="#E8E6E6" stroke="white" stroke-width="0.2"/>
<path d="M17.8426 74.3064H13.6484V77.0231H17.5905V77.3883H13.6484V80.379H17.8884V80.7443H13.2358V73.9411H17.8426V74.3064Z" fill="#E8E6E6" stroke="white" stroke-width="0.2"/>
<path d="M28.981 74.3064H24.7868V77.0231H28.7289V77.3883H24.7868V80.379H29.0268V80.7443H24.3743V73.9411H28.981V74.3064Z" fill="#E8E6E6" stroke="white" stroke-width="0.2"/>
<path d="M38.2622 73.9411C38.9727 73.9411 39.3853 74.0324 39.729 74.2607C40.2333 74.6032 40.5083 75.1511 40.5083 75.8359C40.5083 76.4752 40.2791 77.0231 39.7978 77.3655C39.4311 77.6395 38.9956 77.7536 38.3997 77.7536H36.0391V80.7671H35.6265V73.9639H38.2622V73.9411ZM36.0162 77.3883H38.1476C38.7894 77.3883 39.0644 77.3198 39.3623 77.16C39.8436 76.8861 40.0728 76.4523 40.0728 75.8588C40.0728 75.288 39.8666 74.8543 39.4769 74.5803C39.0644 74.3064 38.6748 74.3064 38.1935 74.3064H36.0162V77.3883Z" fill="#E8E6E6" stroke="white" stroke-width="0.2"/>
<path d="M46.6521 79.5345C46.9959 79.5345 47.248 79.7856 47.248 80.128C47.248 80.4705 46.9959 80.7444 46.6521 80.7444C46.3083 80.7444 46.0562 80.4705 46.0562 80.128C46.0562 79.7856 46.3083 79.5345 46.6521 79.5345Z" fill="#E8E6E6"/>
<path d="M57.1027 76.2467L60.0363 73.5985H60.8843V80.7669H58.982V77.0914L57.1027 78.8036L55.2004 77.0914V80.7669H53.2981V73.5985H54.1461L57.1027 76.2467Z" fill="#E8E6E6"/>
<path d="M71.541 73.576C73.535 73.576 75.1393 75.1969 75.1393 77.1831C75.1393 79.1692 73.535 80.7673 71.541 80.7673C69.5471 80.7673 67.9427 79.1692 67.9427 77.1831C67.9657 75.1969 69.57 73.576 71.541 73.576ZM71.541 75.4709C70.6014 75.4709 69.8221 76.2471 69.8221 77.1831C69.8221 78.1191 70.6014 78.8953 71.541 78.8953C72.4807 78.8953 73.26 78.1191 73.26 77.1831C73.26 76.2242 72.5037 75.4709 71.541 75.4709Z" fill="#E8E6E6"/>
<path d="M88.7777 73.576L85.4315 80.7673H84.5605L81.1914 73.576H83.0937L84.996 77.6625L86.8983 73.576H88.7777Z" fill="#E8E6E6"/>
<path d="M95.3548 73.576H97.2571V80.7673H95.3548V73.576Z" fill="#E8E6E6"/>
<path d="M104.476 73.576H108.945V75.1284H106.356V76.2927H108.647V77.8908H106.356V79.2149H108.945V80.7444H104.476V73.576Z" fill="#E8E6E6"/>
<path d="M72.5601 14.8777V2.14484V0H70.3874H63.0414H61.3687H60.8687V0.0340451L55.2816 7.3197V7.72824V14.8777H47.0217C46.8493 14.8947 42.5383 15.2011 38.2273 18.078C34.2439 20.7335 29.4846 26.1637 29.4846 36.9049C29.4846 47.6972 34.7612 52.9061 39.1757 55.3914C43.935 58.0639 48.6427 58.1831 48.8323 58.1831H66.6799H67.3007L71.9221 50.4038L72.5774 49.2633L72.5601 14.8777ZM57.4543 8.15381L60.8687 3.6939V14.8607H57.4543V8.15381ZM70.3874 47.9185H49.7118C48.6944 47.7142 40.1931 45.6885 40.1931 35.8665C40.1931 31.5768 41.6761 28.4958 44.6076 26.6914C46.6941 25.3977 48.7634 25.2445 48.9875 25.2274H60.8859V40.02H57.4888L57.3854 30.5214H50.436C50.0912 30.5044 48.6771 30.4874 47.4873 31.5598C46.4354 32.4961 45.9009 33.943 45.9009 35.8665C45.9009 40.2073 48.9186 41.8925 50.5223 42.1649L50.6257 42.1819H63.0587V23.0826H48.9013C48.7806 23.0826 46.125 23.2188 43.4522 24.87C40.9691 26.402 38.0203 29.5512 38.0203 35.8836C38.0203 42.1649 41.1243 45.7056 43.7281 47.561C46.5216 49.5527 49.3152 50.0633 49.4359 50.0804L49.5393 50.0974H69.6114L66.0764 56.0383H48.8668C48.8496 56.0383 44.4696 55.9191 40.1931 53.4849C34.5371 50.2846 31.6745 44.7012 31.6745 36.9049C31.6745 29.0916 34.2611 23.372 39.3826 19.9164C43.0384 17.4481 46.7803 17.0566 47.1597 17.0226H60.9032H63.0759V14.8777V2.14484H70.4218V14.8777V17.0226V21.9931V25.2274V47.9185H70.3874ZM55.2816 40.0371H50.8154C50.3153 39.9179 48.0736 39.1859 48.0736 35.8836C48.0736 34.6239 48.3668 33.7047 48.9186 33.194C49.5049 32.6493 50.2463 32.7003 50.2808 32.7003H50.3326H50.3671H55.1954L55.2816 40.0371Z" fill="#E8E6E6"/>
</svg>
