<svg width="27" height="36" viewBox="0 0 27 36" fill="none" xmlns="http://www.w3.org/2000/svg">
<g clip-path="url(#clip0_239_1623)">
<path d="M26.579 9.07793V1.30872V0H25.2533H20.771H19.7504H19.4453V0.0207733L16.0362 4.46626V4.71554V9.07793H10.9963C10.8911 9.08832 8.26063 9.27527 5.63019 11.0306C3.19966 12.6509 0.295654 15.9643 0.295654 22.5182C0.295654 29.1034 3.51532 32.2817 6.20889 33.7981C9.1129 35.4288 11.9853 35.5016 12.1011 35.5016H22.9911H23.3699L26.1897 30.7549L26.5896 30.059L26.579 9.07793ZM17.362 4.9752L19.4453 2.2539V9.06754H17.362V4.9752ZM25.2533 29.2384H12.6377C12.0169 29.1138 6.82967 27.8778 6.82967 21.8847C6.82967 19.2672 7.73455 17.3872 9.52325 16.2863C10.7964 15.4969 12.059 15.4034 12.1958 15.393H19.4558V24.419H17.383L17.3199 18.6233H13.0796C12.8692 18.6129 12.0064 18.6025 11.2804 19.2568C10.6386 19.8281 10.3124 20.711 10.3124 21.8847C10.3124 24.5333 12.1537 25.5615 13.1322 25.7277L13.1953 25.7381H20.7815V14.0843H12.1432C12.0695 14.0843 10.4492 14.1674 8.81829 15.1749C7.30315 16.1097 5.50393 18.0312 5.50393 21.895C5.50393 25.7277 7.39785 27.8881 8.98664 29.0203C10.6912 30.2355 12.3957 30.5471 12.4693 30.5575L12.5325 30.5679H24.7798L22.6229 34.1928H12.1221C12.1116 34.1928 9.43907 34.1201 6.82967 32.6348C3.37853 30.6821 1.63192 27.2753 1.63192 22.5182C1.63192 17.7508 3.21018 14.2609 6.33515 12.1524C8.56577 10.6463 10.849 10.4074 11.0805 10.3866H19.4663H20.7921V9.07793V1.30872H25.2743V9.07793V10.3866V13.4195V15.393V29.2384H25.2533ZM16.0362 24.4294H13.3111C13.006 24.3567 11.6381 23.9101 11.6381 21.895C11.6381 21.1264 11.817 20.5656 12.1537 20.254C12.5114 19.9216 12.9639 19.9527 12.9849 19.9527H13.0165H13.0375H15.9836L16.0362 24.4294Z" fill="#E8E6E6"/>
</g>
<defs>
<clipPath id="clip0_239_1623">
<rect width="26.8475" height="36" fill="white"/>
</clipPath>
</defs>
</svg>
